<?xml version="1.0" encoding="UTF-8" standalone="no"?>
<svg
   xmlns:dc="http://purl.org/dc/elements/1.1/"
   xmlns:cc="http://creativecommons.org/ns#"
   xmlns:rdf="http://www.w3.org/1999/02/22-rdf-syntax-ns#"
   xmlns:svg="http://www.w3.org/2000/svg"
   xmlns="http://www.w3.org/2000/svg"
   xmlns:sodipodi="http://sodipodi.sourceforge.net/DTD/sodipodi-0.dtd"
   xmlns:inkscape="http://www.inkscape.org/namespaces/inkscape"
   version="1.1"
   id="Layer_1"
   x="0px"
   y="0px"
   viewBox="0 0 105.07 122.88"
   style="enable-background:new 0 0 105.07 122.88"
   xml:space="preserve"
   sodipodi:docname="database.svg"
   inkscape:version="0.92.3 (2405546, 2018-03-11)"><metadata
     id="metadata872"><rdf:RDF><cc:Work
         rdf:about=""><dc:format>image/svg+xml</dc:format><dc:type
           rdf:resource="http://purl.org/dc/dcmitype/StillImage" /></cc:Work></rdf:RDF></metadata><defs
     id="defs870" /><sodipodi:namedview
     pagecolor="#ffffff"
     bordercolor="#666666"
     borderopacity="1"
     objecttolerance="10"
     gridtolerance="10"
     guidetolerance="10"
     inkscape:pageopacity="0"
     inkscape:pageshadow="2"
     inkscape:window-width="1536"
     inkscape:window-height="801"
     id="namedview868"
     showgrid="false"
     inkscape:zoom="2.5716146"
     inkscape:cx="37.188772"
     inkscape:cy="28.233521"
     inkscape:window-x="-8"
     inkscape:window-y="-8"
     inkscape:window-maximized="1"
     inkscape:current-layer="Layer_1" /><style
     type="text/css"
     id="style861">.st0{fill-rule:evenodd;clip-rule:evenodd;}</style><g
     id="g865"
     style="fill:#ffffff;fill-opacity:1"><path
       class="st0"
       d="M52.53,0c28.87,0,52.27,10.96,52.27,24.46c0,13.51-23.41,24.46-52.27,24.46c-28.86,0-52.27-10.96-52.27-24.46 C0.26,10.96,23.67,0,52.53,0L52.53,0z M0.26,81.83v18.78c9.3,33.03,101.18,26.65,104.55-1.69V80.16 C100.22,111.27,7.61,113.51,0.26,81.83L0.26,81.83L0.26,81.83z M0,32.94v18.34c9.3,32.26,101.69,27.9,105.07,0.23V33.18 C100.47,63.57,7.35,63.88,0,32.94L0,32.94z M0,56.64v18.78c9.3,33.03,101.69,28.57,105.07,0.23V56.89C100.47,88,7.35,88.32,0,56.64 L0,56.64z"
       id="path863"
       style="fill:#ffffff;fill-opacity:1" /></g></svg>